<?xml version="1.0" encoding="UTF-8" standalone="no"?>
<!DOCTYPE svg PUBLIC "-//W3C//DTD SVG 1.1//EN" "http://www.w3.org/Graphics/SVG/1.1/DTD/svg11.dtd">
<svg width="100%" height="100%" viewBox="0 0 3508 2481" version="1.1" xmlns="http://www.w3.org/2000/svg" xmlns:xlink="http://www.w3.org/1999/xlink" xml:space="preserve" xmlns:serif="http://www.serif.com/" style="fill-rule:evenodd;clip-rule:evenodd;stroke-linecap:square;stroke-miterlimit:1.5;">
    <path d="M2439.65,708.444C2438.31,721.456 2436.85,731.307 2435.26,736.434C2430.88,750.555 2418.51,788.837 2406.03,786.533C2393.55,784.23 2358.53,751.982 2358.53,751.982L2361.05,1108.49C2263.29,1185.31 2196.55,1255.65 2209.99,1358.47C2238.35,1575.44 2376.8,1596.67 2393.95,1808.62C2408.8,1992.19 2320.37,2124.95 2320.37,2124.95L306.062,2120.89C306.062,2120.89 607.335,2081.64 756.751,2056C926.143,2026.94 1186.75,2018.83 1322.41,1946.51C1449.03,1879.01 1528.6,1742.38 1570.75,1622.08C1612.91,1501.76 1527.83,1345.63 1575.35,1224.64C1622.87,1103.66 1737.84,971.857 1855.88,896.156C1929.06,849.222 2210.26,772.148 2439.65,708.444ZM2938.33,480.832C2940.93,477.391 2943.42,473.896 2945.81,470.338C2992.57,400.72 2821.68,193.551 2821.68,193.551L2969.03,194.031C2969.03,194.031 3243.83,314.797 3276.93,474.394C3298.21,576.964 3180.36,717.622 3058.91,817.653L3060.45,707.538C3060.45,707.538 3024.22,729.708 3007.48,728.269C2990.73,726.829 2976.42,710.993 2959.98,698.9C2947.07,689.408 2940.55,543.26 2938.33,480.832Z" style="fill:rgb(103,173,254);"/>
    <g transform="matrix(1,0,0,1,-37.4442,-193.938)">
        <g transform="matrix(1,0,0,1,37.4442,193.938)">
            <path d="M2374.43,1212.73L2316.29,1212.73C2249.97,1079.62 2087.01,990.83 1904.03,990.83C1721.06,990.83 1558.09,1079.62 1491.77,1212.73L1481.29,1212.73C1475.06,1204.69 1469.07,1196.46 1463.83,1188.62C1456.65,1177.9 1446.57,1160.39 1437.11,1143.35C1526.49,1003.36 1705.33,912.553 1904.03,912.553C2105.34,912.553 2286.25,1005.75 2374.43,1148.89L2374.43,1212.73ZM2405,1209.76C2405.38,1210.73 2405.77,1211.73 2406.16,1212.73L2405,1212.73L2405,1209.76Z" style="fill:rgb(1,80,171);"/>
        </g>
        <g transform="matrix(1,0,0,1.11924,-10,-137.54)">
            <path d="M1850.6,1204.75L1802.89,1213.58L1802.89,1384.97L1850.6,1384.97L1850.6,1204.75Z" style="fill:rgb(1,80,171);"/>
        </g>
        <g transform="matrix(1,0,0,0.660548,-150.418,494.635)">
            <path d="M1850.6,1181.7L1802.89,1213.58L1802.89,1384.97L1850.6,1384.97L1850.6,1181.7Z" style="fill:rgb(1,80,171);"/>
        </g>
        <g transform="matrix(-1,0,0,1.11924,3898.77,-140.836)">
            <path d="M1850.6,1204.75L1802.89,1213.58L1802.89,1384.97L1850.6,1384.97L1850.6,1204.75Z" style="fill:rgb(1,80,171);"/>
        </g>
        <g transform="matrix(-1,0,0,0.660548,4036.43,494.635)">
            <path d="M1850.6,1181.7L1802.89,1213.58L1802.89,1384.97L1850.6,1384.97L1850.6,1181.7Z" style="fill:rgb(1,80,171);"/>
        </g>
        <g transform="matrix(1,0,0,1.20702,124.386,-279.678)">
            <rect x="1801.38" y="1223.54" width="49.001" height="179.04" style="fill:rgb(1,80,171);"/>
        </g>
        <g transform="matrix(1,0,0,1,37.4442,193.938)">
            <path d="M1432.07,1261.89C1428.65,1256.51 1426.6,1253.27 1426.6,1253.27C1426.6,1253.27 1435.58,1257.16 1447.53,1261.89L1432.07,1261.89ZM2374.43,1233L2374.43,1261.89L1528.63,1261.89C1524.11,1259.02 1519.98,1256.06 1517.02,1253.27C1511.27,1247.83 1504.69,1240.83 1497.89,1233L2374.43,1233ZM2405,1233L2405.81,1233L2405.81,1261.89L2405,1261.89L2405,1233Z" style="fill:rgb(1,80,171);"/>
        </g>
    </g>
    <g>
        <g transform="matrix(1.09477,0,0,1.17091,2.7519,29.1252)">
            <path d="M21.564,970.692C29.137,957.475 42.054,938.153 48.827,920.295C57.915,896.336 76.091,826.938 76.091,826.938C76.091,826.938 87.244,883.531 95.093,909.555C102.669,934.675 123.183,983.085 123.183,983.085L89.31,1019.44L100.05,1042.57L12.476,1054.89L5.319,1039.06C5.319,1039.06 23.967,1026.47 28.545,1019.53C32.677,1013.27 32.786,997.42 32.786,997.42L3.388,999.595C3.388,999.595 15.905,980.567 21.564,970.692Z" style="fill:rgb(1,80,171);"/>
        </g>
        <g transform="matrix(1.09477,0,0,1.17091,5.66213,29.1252)">
            <path d="M120.525,1040.07C111.883,1040.2 107.306,1017.76 107.306,1017.76C107.306,1017.76 136.36,992.291 145.31,981.413C152.278,972.944 161.007,952.497 161.007,952.497C161.007,952.497 138.521,952.21 130.259,949.593C122.605,947.169 111.437,936.8 111.437,936.8C111.437,936.8 161.558,883.236 175.052,862.444C184.724,847.541 192.402,812.048 192.402,812.048C192.402,812.048 148.477,821.824 136.222,821.962C129.694,822.035 118.872,812.874 118.872,812.874C118.872,812.874 158.804,779.551 173.4,761.651C187.13,744.813 203.418,715.247 206.447,705.471C207.934,700.671 196.12,705.058 191.576,702.992C187.032,700.927 179.183,693.078 179.183,693.078C179.183,693.078 229.442,636.072 246.103,606.33C261.983,577.982 279.15,514.625 279.15,514.625C279.15,514.625 297.051,525.778 299.805,531.974C302.547,538.144 294.209,545.212 295.674,551.802C298.703,565.434 308.583,593.927 317.981,613.766C330.373,639.928 354.332,682.613 370.03,708.776C382.88,730.194 412.164,770.739 412.164,770.739C412.164,770.739 395.151,775.796 386.553,774.87C377.603,773.906 358.463,764.956 358.463,764.956C358.463,764.956 391.785,810.533 405.555,824.44C415.604,834.59 441.081,848.399 441.081,848.399C441.081,848.399 432.441,856.129 427.036,856.661C418.636,857.487 390.684,853.356 390.684,853.356C390.684,853.356 415.882,919.45 424.557,939.278C429.596,950.796 442.733,972.325 442.733,972.325C442.733,972.325 411.201,971.912 398.946,969.021C388.275,966.503 369.203,954.976 369.203,954.976L400.598,1008.68C400.598,1008.68 381.878,1013.02 372.508,1011.98C362.594,1010.88 341.113,1002.07 341.113,1002.07C341.113,1002.07 329.564,1013.18 322.111,1014.46C285.347,1020.79 156.326,1039.52 120.525,1040.07Z" style="fill:rgb(1,40,123);"/>
        </g>
        <g transform="matrix(1.06459,0,0,1.19832,30.1971,40.2477)">
            <path d="M461.91,838.409L500.74,829.321L577.607,822.904L621.889,821.521L650.424,805.019L675.921,807.207L735.406,799.771L823.919,800.572L848.525,808.904C848.525,808.904 830.077,797.525 830.69,782.857C831.198,770.701 840.938,760.52 840.938,760.52C840.938,760.52 831.442,754.239 825.478,747.397C819.766,740.842 816.215,730.006 816.215,725.159C816.215,719.465 819.523,702.87 826.551,693.714C834.278,683.648 851.916,681.246 851.916,681.246C851.916,681.246 843.325,673.125 836.267,664.572C831.938,659.325 829.546,646.281 828.707,642.484C826.501,632.496 838.678,621.317 838.678,621.317C838.678,621.317 816.711,610.524 804.805,609.751C783.6,608.374 711.447,613.056 711.447,613.056C711.447,613.056 632.134,646.929 624.699,649.407C617.263,651.886 587.521,672.54 580.085,673.366C572.65,674.193 516.47,679.15 516.47,679.15L477.64,694.021C477.64,694.021 459.73,691.845 452.854,696.499C443.904,702.558 425.591,722.111 423.938,730.372C422.286,738.634 419.807,784.074 419.807,784.074L438.777,831.8L461.91,838.409Z" style="fill:rgb(1,40,123);"/>
        </g>
        <path d="M483.053,991.02L477.121,975.036C477.121,975.036 479.76,921.83 481.519,912.156C483.278,902.483 502.774,879.588 512.303,872.494C519.623,867.044 538.689,869.592 538.689,869.592L580.027,852.179C580.027,852.179 639.836,846.375 647.752,845.407C655.668,844.44 687.331,820.255 695.247,817.353C703.163,814.451 787.599,774.789 787.599,774.789C787.599,774.789 864.412,769.307 886.987,770.919C899.662,771.824 923.048,784.462 923.048,784.462C923.048,784.462 910.085,797.551 912.434,809.246C913.327,813.693 915.872,828.967 920.481,835.11C927.995,845.125 937.141,854.634 937.141,854.634C937.141,854.634 933.726,855.146 929.171,856.647L888.604,848.775L777.729,888.446L739.404,891.119L724.552,909.943L709.07,929.665L675.994,925.209L634.304,946.426L518.344,959.65L483.053,991.02Z" style="fill:rgb(1,80,171);"/>
        <g transform="matrix(1.09477,0,0,1.19069,17.5304,40.9399)">
            <path d="M861.811,1015.4C861.811,1015.4 851.897,953.44 851.897,944.352C851.897,941.705 855.395,915.408 855.395,915.408L843.468,892.81L852.723,862.56L848.786,839.05L815.049,815.979L729.128,817.886C729.128,817.886 688.039,863.249 677.574,893.129C667.109,923.009 669.312,988.965 669.312,988.965L861.811,1015.4Z" style="fill:rgb(1,40,123);"/>
        </g>
        <g transform="matrix(1.09477,0,0,1.19069,17.5304,40.9399)">
            <path d="M861.811,1015.4C861.811,1015.4 851.897,953.44 851.897,944.352C851.897,941.705 855.395,915.408 855.395,915.408L843.468,892.81L852.723,862.56L848.786,839.05L815.049,815.979L729.128,817.886C729.128,817.886 688.039,863.249 677.574,893.129C667.109,923.009 669.312,988.965 669.312,988.965L861.811,1015.4Z" style="fill:rgb(1,80,171);"/>
        </g>
        <g transform="matrix(1.09477,0,0,1.11803,17.5304,111.957)">
            <path d="M605.697,989.607L606.523,926.176C606.523,926.176 581.875,846.863 562.736,831.166C544.422,816.146 491.684,831.992 491.684,831.992L455.333,849.342C455.333,849.342 431.098,893.68 432.2,914.609C433.301,935.539 461.942,965.885 461.942,965.885C461.942,965.885 433.026,972.77 427.243,977.452C422.962,980.917 427.243,993.975 427.243,993.975C427.243,993.975 491.945,988.119 521.687,987.391C549.692,986.705 605.697,989.607 605.697,989.607Z" style="fill:rgb(1,40,123);"/>
        </g>
        <path d="M575.04,1037.45C563.881,1039.67 555.81,1042.15 555.81,1042.15L516.013,1061.55C516.013,1061.55 489.482,1111.12 490.688,1134.52C491.894,1157.92 523.249,1191.85 523.249,1191.85C523.249,1191.85 491.593,1199.55 485.261,1204.78C480.575,1208.65 485.261,1223.25 485.261,1223.25C485.261,1223.25 556.095,1216.71 588.656,1215.89C589.873,1215.86 591.139,1215.84 592.449,1215.82C597.395,1205.59 609.079,1181.2 610.011,1177.07C611.196,1171.81 590.259,1127.74 587.494,1120.46C584.729,1113.18 551.545,1078.01 551.545,1078.01L575.04,1037.45Z" style="fill:rgb(1,80,171);"/>
        <path d="M814.773,1015.99L868.13,1017.18L858.872,1079.21L883.87,1139.39L842.206,1185.69L847.761,1230.13L840.666,1231.99L961.012,1249.97C961.012,1249.97 950.158,1176.19 950.158,1165.37C950.158,1162.22 953.988,1130.91 953.988,1130.91L940.93,1104L951.062,1067.98L946.752,1039.99L909.818,1012.52L815.755,1014.79C815.755,1014.79 815.41,1015.2 814.773,1015.99Z" style="fill:rgb(1,40,123);"/>
        <g transform="matrix(1.09477,0,0,1.17091,-103.783,8.69086)">
            <path d="M1185.11,1093.15L1169.79,1070.54C1169.79,1070.54 1168.54,1030.37 1166.52,1015.7C1162.91,989.367 1163.42,935.149 1163.42,935.149C1163.42,935.149 1195.1,936.698 1205.77,932.051C1215.83,927.668 1224.87,917.765 1227.45,907.266C1230.04,896.767 1226.77,877.145 1221.26,869.055C1215.86,861.129 1194.41,858.728 1194.41,858.728C1194.41,858.728 1225.39,870.949 1236.75,866.99C1248.11,863.031 1261.53,845.647 1262.57,834.976C1263.6,824.304 1242.94,802.961 1242.94,802.961C1242.94,802.961 1263.25,805.027 1268.76,798.83C1274.27,792.634 1277.02,775.078 1275.99,765.784C1274.96,756.489 1259.47,743.064 1259.47,743.064C1259.47,743.064 1277.16,737.145 1281.15,729.638C1285.46,721.549 1288.73,704.337 1285.29,694.526C1281.84,684.715 1260.5,670.773 1260.5,670.773C1260.5,670.773 1259.98,635.489 1252.24,625.334C1244.49,615.179 1224.87,611.22 1214.03,609.843C1204.83,608.675 1187.18,617.072 1187.18,617.072C1187.18,617.072 1178.5,597.795 1170.65,591.254C1162.39,584.369 1148.62,577.657 1137.61,575.763C1126.67,573.883 1112.48,575.419 1104.56,579.894C1096.75,584.311 1090.1,602.614 1090.1,602.614C1090.1,602.614 1063.42,591.254 1052.92,591.254C1043.52,591.254 1032.44,596.418 1027.11,602.614C1021.77,608.81 1020.05,620.17 1020.91,628.432C1021.77,636.694 1032.27,652.185 1032.27,652.185C1032.27,652.185 1012.07,642.734 1001.29,642.89C989.412,643.062 969.446,644.956 961.012,653.217C952.578,661.479 949.136,680.24 950.685,692.461C952.234,704.681 970.306,726.54 970.306,726.54C970.306,726.54 950.972,728.897 945.521,735.835C939.841,743.064 935.538,760.104 936.227,769.914C936.884,779.287 944.144,790.225 949.652,794.7C954.756,798.847 969.274,796.765 969.274,796.765C969.274,796.765 948.275,810.363 946.554,818.452C944.833,826.542 950.981,839.495 958.946,845.303C967.208,851.327 996.124,854.597 996.124,854.597C996.124,854.597 984.592,874.563 985.797,881.448C987.002,888.333 996.092,893.728 1003.35,895.906C1013.68,899.004 1047.76,900.037 1047.76,900.037C1047.76,900.037 1030.03,910.364 1029.17,914.495C1028.31,918.626 1037.52,922.352 1042.6,924.822C1048.96,927.92 1067.38,933.084 1067.38,933.084C1067.38,933.084 1054.75,971.079 1045.69,988.851C1036.4,1007.1 1002.54,1063.7 1002.54,1063.7L1161.36,1110.71L1185.11,1093.15Z" style="fill:rgb(1,80,171);"/>
        </g>
        <g transform="matrix(1.09477,0,0,1.17091,-93.2929,-60.4615)">
            <path d="M1179.95,1122.07C1186.66,1116.22 1199.08,1100.22 1206.8,1087.99C1215.92,1073.53 1234.68,1035.32 1234.68,1035.32C1234.68,1035.32 1212.13,1044.79 1204.73,1044.62C1198.81,1044.48 1190.28,1034.29 1190.28,1034.29C1190.28,1034.29 1210.1,1017.23 1217.13,1006.41C1229.52,987.302 1263.6,932.051 1264.63,919.658C1265.66,907.266 1287.35,812.256 1287.35,812.256L1293.55,771.98C1293.55,771.98 1313.67,784.363 1317.3,794.7C1321.78,807.436 1317.33,830.736 1320.4,848.401C1324.53,872.153 1332.45,913.634 1342.09,937.215C1350.14,956.924 1378.23,989.883 1378.23,989.883C1378.23,989.883 1363.94,991.088 1357.58,990.916C1351.68,990.757 1340.02,988.851 1340.02,988.851C1340.02,988.851 1367.56,1043.07 1381.33,1064.24C1393.35,1082.72 1410.42,1104 1422.64,1115.88C1431.61,1124.6 1454.65,1135.5 1454.65,1135.5C1454.65,1135.5 1422,1138.55 1406.11,1135.5C1389.07,1132.23 1352.41,1115.88 1352.41,1115.88C1352.41,1115.88 1387.01,1172.16 1403.02,1195.39C1417.23,1216.03 1435.2,1239.8 1448.45,1255.29C1458.74,1267.32 1482.53,1288.34 1482.53,1288.34C1482.53,1288.34 1454.68,1284.16 1442.26,1278.01C1423.5,1268.72 1369.97,1232.57 1369.97,1232.57C1369.97,1232.57 1389.79,1276.55 1399.8,1297.23C1410.12,1318.58 1431.12,1344.91 1442.14,1359.2C1448.98,1368.07 1465.89,1382.95 1465.89,1382.95C1465.89,1382.95 1404.79,1365.22 1385.34,1354.03C1370.14,1345.29 1360.14,1327.26 1347.95,1314.66C1326.32,1292.29 1272.75,1243.13 1244.09,1220.1C1220.97,1201.52 1166.99,1179.08 1166.99,1179.08L1205.77,1138.6L1176.85,1133.43L1166.52,1123.1C1166.52,1123.1 1176.57,1125.02 1179.95,1122.07Z" style="fill:rgb(1,40,123);"/>
        </g>
        <g transform="matrix(1.05944,0,0,0.822332,-33.0974,305.547)">
            <path d="M1454.38,1614.49L67.703,1592.03L67.703,1222.14C67.703,1222.14 362.593,1172.34 542.01,1151.58C600.332,1144.84 771.813,1164.77 860.963,1179.26C893.009,1184.46 928.076,1193.74 963.295,1205.48C1030.68,1227.94 1098.62,1259.42 1147.02,1288.72C1211.39,1327.69 1263.78,1396.27 1303.16,1446.94C1336.09,1489.3 1354.25,1551.45 1387.43,1584.08C1418.08,1614.22 1454.38,1614.49 1454.38,1614.49Z" style="fill:rgb(1,40,123);stroke:rgb(1,40,123);stroke-width:33.19px;"/>
        </g>
        <g transform="matrix(1.02978,2.29728e-19,-2.53901e-19,1.13814,96.7624,-204.435)">
            <path d="M2223.77,1609.65L3256.36,1611.07" style="fill:none;stroke:rgb(1,40,123);stroke-width:29px;stroke-linejoin:round;"/>
        </g>
    </g>
    <g transform="matrix(1.11149,0,0,1.11149,19.7615,-199.308)">
        <path d="M2145.27,927.236C2145.27,927.236 2172.3,953.556 2181.93,955.436C2191.57,957.316 2201.11,926.072 2204.49,914.546C2212.48,887.286 2203.08,669.206 2203.08,669.206C2203.08,669.206 2244.2,738.531 2262.3,755.216C2277.91,769.61 2308.51,750.581 2317.29,731.246C2332.33,698.111 2347.37,610.221 2352.54,563.456C2355.33,538.191 2356.77,487.316 2356.77,487.316C2356.77,487.316 2393.66,588.836 2411.76,605.756C2425.44,618.548 2452.41,600.586 2465.34,588.836C2478.26,577.086 2489.31,535.256 2489.31,535.256C2489.31,535.256 2491.66,628.081 2499.18,659.336C2505.37,685.072 2525.03,711.036 2534.43,722.786C2541.57,731.716 2558.88,723.677 2568.27,717.146C2579.08,709.626 2599.29,677.666 2599.29,677.666C2599.29,677.666 2602.11,846.866 2614.8,856.736C2627.49,866.606 2638.53,879.531 2651.46,880.706C2664.39,881.881 2692.35,863.786 2692.35,863.786L2688.12,1183.86L2524.56,1188.09L2521.74,1288.2L2424.45,1205.01L2313.06,1316.4L2313.06,1330.5L2153.47,1331.91" style="fill:rgb(1,40,123);"/>
        <g transform="matrix(0.899695,0,0,0.899695,-17.7793,179.316)">
            <path d="M2741.76,468.862C2748.8,464.529 2755.22,459.478 2759.96,455.176C2774.32,442.116 2786.6,395.623 2786.6,395.623C2786.6,395.623 2789.21,498.797 2797.57,533.536C2804.45,562.142 2826.3,591 2836.75,604.06C2844.69,613.985 2863.93,605.05 2874.36,597.791C2886.38,589.433 2908.84,553.91 2908.84,553.91C2908.84,553.91 2911.97,741.974 2926.08,752.944C2940.18,763.914 2952.46,778.28 2966.83,779.586C2981.19,780.892 3012.28,760.78 3012.28,760.78L3007.57,1116.53L2825.78,1121.24L2822.64,1232.51L2741.76,1163.35L2741.76,468.862Z" style="fill:rgb(1,80,171);"/>
        </g>
        <rect x="2756.04" y="747.024" width="203.04" height="16.243" style="fill:rgb(1,40,123);"/>
        <g transform="matrix(1,0,0,1,181.924,42.5933)">
            <path d="M2679.28,505.096L2692.28,551.299L2679.28,597.502L2666.29,551.299L2679.28,505.096Z" style="fill:rgb(1,40,123);"/>
        </g>
        <g transform="matrix(-1,1.22465e-16,-2.00651e-16,-1.63844,5681.83,1706.69)">
            <path d="M2734.6,576.315C2734.6,624.128 2773.36,662.889 2821.17,662.889C2868.99,662.889 2907.75,624.128 2907.75,576.315L2821.17,576.315L2734.6,576.315Z" style="fill:rgb(1,40,123);"/>
        </g>
        <rect x="2776.34" y="759.897" width="27.072" height="104.904" style="fill:rgb(1,40,123);"/>
        <g transform="matrix(1,0,0,1,68.3201,0)">
            <rect x="2776.34" y="759.897" width="27.072" height="104.904" style="fill:rgb(1,40,123);"/>
        </g>
        <g transform="matrix(1,0,0,1,142.128,0)">
            <rect x="2776.34" y="759.897" width="27.072" height="104.904" style="fill:rgb(1,40,123);"/>
        </g>
        <path d="M2959.96,1216.58L2959.96,852.537L2763.97,852.537L2763.97,1232.8L2833.26,1163.5L2923.15,1253.39L2959.96,1216.58Z" style="fill:rgb(1,40,123);"/>
        <g transform="matrix(1,0,0,1.00964,-102.225,-11.5466)">
            <path d="M3194.58,1608L3194.58,1290.75L3108.22,1204.39L3025.38,1287.23L2935.49,1197.34L2830.62,1302.21L2830.62,1604.48L3194.58,1608Z" style="fill:rgb(1,80,171);"/>
        </g>
        <g transform="matrix(1,0,0,1,17.625,0)">
            <rect x="2526.59" y="1207.91" width="163.913" height="401.851" style="fill:rgb(1,40,123);"/>
        </g>
        <g transform="matrix(1,0,0,0.928709,220.313,91.7939)">
            <rect x="1907.95" y="1357.73" width="186.825" height="278.475" style="fill:rgb(1,80,171);"/>
        </g>
        <g transform="matrix(1,0,0,0.972009,82.8376,34.5259)">
            <path d="M2440.23,1620.34L2440.23,1326L2347.7,1233.47L2251.64,1329.53L2251.64,1620.34L2440.23,1620.34Z" style="fill:rgb(1,40,123);"/>
        </g>
    </g>
    <g transform="matrix(1,0,0,1,-3.73749,-63.5373)">
        <rect x="636.331" y="1195.89" width="183.955" height="183.955" style="fill:white;"/>
    </g>
    <g transform="matrix(1.37449,0,0,1.37449,-278.046,-487.443)">
        <path d="M796.044,1177.71L796.044,1311.66L662.092,1311.66L796.044,1177.71Z" style="fill:rgb(254,118,49);"/>
    </g>
    <g transform="matrix(1,0,0,1,2107.44,177.933)">
        <rect x="636.331" y="1195.89" width="183.955" height="183.955" style="fill:white;"/>
    </g>
    <g transform="matrix(1.37449,0,0,1.37449,1833.13,-245.973)">
        <path d="M796.044,1177.71L796.044,1311.66L662.092,1311.66L796.044,1177.71Z" style="fill:rgb(254,118,49);"/>
    </g>
</svg>
